<?xml version="1.0" encoding="utf-8"?>
<!-- Generator: Adobe Illustrator 16.0.0, SVG Export Plug-In . SVG Version: 6.00 Build 0)  -->
<!DOCTYPE svg PUBLIC "-//W3C//DTD SVG 1.1//EN" "http://www.w3.org/Graphics/SVG/1.1/DTD/svg11.dtd">
<svg version="1.1" id="Layer_1" xmlns="http://www.w3.org/2000/svg" xmlns:xlink="http://www.w3.org/1999/xlink" x="0px" y="0px"
	 width="340.16px" height="226.77px" viewBox="0 0 340.16 226.77" enable-background="new 0 0 340.16 226.77" xml:space="preserve">
<path fill="none" stroke="#040000" stroke-width="0.2" stroke-linecap="round" stroke-linejoin="round" d="M79.273,147.973
	c9.008-16.012,18.375-31.86,29.395-46.536c17.447-23.24,41.907-51.216,69.75-61.11c17.879-6.355,45.772-5.087,50.113,17.256
	c4.851,24.949-15.628,56.71-33.827,71.979c-9.111,7.646-17.464,0.839-16.708-9.83c0.888-12.504,12.537-21.698,22.182-27.809
	c6.208-3.932,12.759-7.284,19.443-10.291c10.699-4.809,20.746-8.355,32.629-6.826c9.531,1.227,17.438,6.043,16.521,17.144
	c-0.804,9.7-7.713,19.582-13.12,27.204c-17.277,24.354-45.307,47.418-74.982,63.576c-11.883,6.469-30.159,16.333-45.76,13.434
	c-28.976-5.387-17.139-48.258-10.959-62.923c4.62-10.965,10.013-21.816,15.722-32.231c7.093-13.202,15.366-25.812,23.944-38.047
	c8.259-11.78,17.069-23.271,27.312-33.34c10.308-10.138,21.43-20.788,35.178-25.768c10.153-3.678,19.519-3.999,18.056,10.689
	c-1.804,18.105-16.191,36.18-29.732,44.958c-5.568,3.604-16.29,8.988-22.617,9.086c0.065-0.774,1.891-2.952,2.517-3.359"/>
</svg>
